<svg xmlns="http://www.w3.org/2000/svg" width="1200" height="290" role="img" aria-label="Alexander Gill header">
  <title>Alexander Gill - Moving Forward</title>
  <defs>
    <linearGradient id="bgGrad" x1="0%" y1="0%" x2="100%" y2="0%">
      <stop offset="0%" stop-color="#171F1F" />
      <stop offset="100%" stop-color="#8CCAAF" />
    </linearGradient>
    <linearGradient id="copperGrad" x1="0%" y1="0%" x2="100%" y2="0%">
      <stop offset="0%" stop-color="#b46a3a" />
      <stop offset="100%" stop-color="#d49a62" />
    </linearGradient>
    <filter id="softGlow" x="-40%" y="-40%" width="180%" height="180%">
      <feDropShadow dx="0" dy="5" stdDeviation="4" flood-color="#120f1f" flood-opacity="0.5"/>
    </filter>
  </defs>

  <path d="M0 0 H1200 V168 Q900 203 600 186 T0 194 V0 Z" fill="url(#bgGrad)" >
    <animate
      attributeName="d"
      dur="20s"
      repeatCount="indefinite"
      keyTimes="0;0.333;0.667;1"
      calcMode="spline"
      keySplines="0.2 0 0.2 1;0.2 0 0.2 1;0.2 0 0.2 1"
      begin="-5s"
      values="M0 0 H1200 V168 Q900 203 600 186 T0 194 V0 Z;M0 0 H1200 V176 Q900 188 600 176 T0 186 V0 Z;M0 0 H1200 V158 Q900 198 600 194 T0 202 V0 Z;M0 0 H1200 V168 Q900 203 600 186 T0 194 V0 Z">
    </animate>
  </path>
  <path d="M0 0 L0 130 Q300 172 600 145 T1200 165 L1200 0 Z" fill="#8CCAAF" opacity="0.18" >
    <animate
      attributeName="d"
      dur="20s"
      repeatCount="indefinite"
      keyTimes="0;0.333;0.667;1"
      calcMode="spline"
      keySplines="0.2 0 0.2 1;0.2 0 0.2 1;0.2 0 0.2 1"
      begin="-10s"
      values="M0 0 L0 130 Q300 172 600 145 T1200 165 L1200 0 Z;M0 0 L0 165 Q300 172 600 155 T1200 140 L1200 0 Z;M0 0 L0 185 Q300 137 600 185 T1200 140 L1200 0 Z;M0 0 L0 130 Q300 172 600 145 T1200 165 L1200 0 Z">
    </animate>
  </path>
  <path d="M0 0 L0 145 Q300 198 600 170 T1200 182 L1200 0 Z" fill="#171F1F" opacity="0.22" >
      <animate
        attributeName="d"
        dur="20s"
        repeatCount="indefinite"
        keyTimes="0;0.333;0.667;1"
        calcMode="spline"
        keySplines="0.2 0 0.2 1;0.2 0 0.2 1;0.2 0 0.2 1"
        begin="0s"
        values="M0 0 L0 145 Q300 198 600 170 T1200 182 L1200 0 Z;M0 0 L0 168 Q300 127 600 127 T1200 154 L1200 0 Z;M0 0 L0 160 Q300 133 600 170 T1200 189 L1200 0 Z;M0 0 L0 145 Q300 198 600 170 T1200 182 L1200 0 Z">
      </animate>
    </path>

  <g filter="url(#softGlow)">
    <text x="60" y="122" fill="#8ecfb3" font-size="88" font-weight="800" font-family="Verdana,Geneva,DejaVu Sans,sans-serif">Alexander Gill</text>
    <text x="60" y="170" fill="#8ecfb3" opacity="0.95" font-size="47" font-weight="700" font-family="Verdana,Geneva,DejaVu Sans,sans-serif">Moving Forward</text>
  </g>

  <g filter="url(#softGlow)">
    <rect x="758" y="15" width="424" height="46" rx="10" fill="#1b1624" opacity="0.35"/>
    
  <g transform="translate(768 22)">
    <rect x="0" y="0" width="148" height="32" rx="7" fill="#1d1328" stroke="#5b2e66" />
    <rect x="0" y="0" width="109" height="32" rx="7" fill="#311a44" />
    <rect x="103" y="0" width="6" height="32" fill="#311a44" />
    <rect x="109" y="0" width="39" height="32" rx="7" fill="url(#copperGrad)" />
    <rect x="109" y="0" width="6" height="32" fill="url(#copperGrad)" />
    <g transform="translate(8 9) scale(0.78)" fill="#fdf2f8" opacity="0.95">
      <path d="M1.5 8s2.7-4.5 6.5-4.5S14.5 8 14.5 8s-2.7 4.5-6.5 4.5S1.5 8 1.5 8Zm6.5 2.4a2.4 2.4 0 1 0 0-4.8 2.4 2.4 0 0 0 0 4.8Z" />
    </g>
    <text x="26" y="21" fill="#fde7ff" font-size="10" font-family="Verdana,Geneva,DejaVu Sans,sans-serif" font-weight="700" letter-spacing="0.2" textLength="75" lengthAdjust="spacingAndGlyphs">PROFILE VIEWS</text>
    <text x="128.5" y="21" text-anchor="middle" fill="#fff9f0" font-size="14" font-family="Verdana,Geneva,DejaVu Sans,sans-serif" font-weight="800">119</text>
  </g>

  <g transform="translate(924 22)">
    <rect x="0" y="0" width="122" height="32" rx="7" fill="#1d1328" stroke="#5b2e66" />
    <rect x="0" y="0" width="88" height="32" rx="7" fill="#311a44" />
    <rect x="82" y="0" width="6" height="32" fill="#311a44" />
    <rect x="88" y="0" width="34" height="32" rx="7" fill="url(#copperGrad)" />
    <rect x="88" y="0" width="6" height="32" fill="url(#copperGrad)" />
    <g transform="translate(8 9) scale(0.78)" fill="#fdf2f8" opacity="0.95">
      <path d="M5.2 7.1a2.1 2.1 0 1 1 4.2 0 2.1 2.1 0 0 1-4.2 0Zm-3 8.4v-.8c0-2.3 1.9-4.2 4.2-4.2h1.8c2.3 0 4.2 1.9 4.2 4.2v.8H2.2Zm10.5-9.3a1.8 1.8 0 1 1 0 3.6h-.6a2.8 2.8 0 0 0 .6-3.6Zm.4 9.3v-.8c0-1.2-.4-2.3-1.1-3.2h.3c1.9 0 3.4 1.5 3.4 3.4v.6h-2.6Z" />
    </g>
    <text x="26" y="21" fill="#fde7ff" font-size="10" font-family="Verdana,Geneva,DejaVu Sans,sans-serif" font-weight="700" letter-spacing="0.2" textLength="54" lengthAdjust="spacingAndGlyphs">FOLLOWERS</text>
    <text x="105.0" y="21" text-anchor="middle" fill="#fff9f0" font-size="14" font-family="Verdana,Geneva,DejaVu Sans,sans-serif" font-weight="800">3</text>
  </g>

  <g transform="translate(1054 22)">
    <rect x="0" y="0" width="118" height="32" rx="7" fill="#1d1328" stroke="#5b2e66" />
    <rect x="0" y="0" width="84" height="32" rx="7" fill="#311a44" />
    <rect x="78" y="0" width="6" height="32" fill="#311a44" />
    <rect x="84" y="0" width="34" height="32" rx="7" fill="url(#copperGrad)" />
    <rect x="84" y="0" width="6" height="32" fill="url(#copperGrad)" />
    <g transform="translate(8 9) scale(0.78)" fill="#fdf2f8" opacity="0.95">
      <path d="M8 1.25a.75.75 0 0 1 .67.42l1.88 3.81 4.2.61a.75.75 0 0 1 .41 1.28l-3.04 2.97.72 4.19a.75.75 0 0 1-1.09.79L8 13.35l-3.77 1.97a.75.75 0 0 1-1.08-.79l.71-4.19L.82 7.37a.75.75 0 0 1 .42-1.28l4.2-.61L7.32 1.67A.75.75 0 0 1 8 1.25Z" />
    </g>
    <text x="26" y="21" fill="#fde7ff" font-size="10" font-family="Verdana,Geneva,DejaVu Sans,sans-serif" font-weight="700" letter-spacing="0.2" textLength="50" lengthAdjust="spacingAndGlyphs">STARS</text>
    <text x="101.0" y="21" text-anchor="middle" fill="#fff9f0" font-size="14" font-family="Verdana,Geneva,DejaVu Sans,sans-serif" font-weight="800">4</text>
  </g>

  </g>
</svg>
